#!OML:ASF F:\VICON\USERDATA\INSTALL\rory3\rory3.ASF
:FULLY-SPECIFIED
:DEGREES
213
root 4.15873 17.4702 3.20711 18.0763 -16.8805 -0.744212
lowerback -6.16394 3.84041 3.4434
upperback -10.8311 5.01276 -0.836322
thorax -7.58185 2.1751 -2.80189
lowerneck -10.1073 7.21704 4.96821
upperneck 35.3523 8.44088 3.07857
head 13.7638 4.75557 1.59203
rclavicle 5.66785e-014 1.59028e-014
rhumerus 11.6974 -20.2088 1.36433
rradius 115.73
rwrist -55.2453
rhand -8.89776 -48.8531
rfingers 7.12502
rthumb 17.0449 -78.1253
lclavicle 5.66785e-014 1.59028e-014
lhumerus 30.2068 27.5361 -11.4535
lradius 43.7574
lwrist 65.6131
lhand -30.0191 -21.8914
lfingers 7.12502
lthumb -3.3359 8.06227
rfemur -12.9203 -1.0694 -3.90628
rtibia 17.1161
rfoot -38.7474 -16.2374
rtoes 53.6199
lfemur -25.799 3.55474 -29.5401
ltibia 22.3397
lfoot -13.8414 11.2367
ltoes 13.5917
214
root 4.16389 17.4712 3.20555 18.2022 -16.922 -0.960372
lowerback -6.24177 3.80687 3.56985
upperback -10.8712 4.96763 -0.738355
thorax -7.58479 2.14615 -2.76528
lowerneck -10.1269 7.04331 4.7962
upperneck 35.6217 8.23744 3.03329
head 13.878 4.63574 1.58444
rclavicle 4.56459e-014 2.38542e-014
rhumerus 11.9803 -20.0338 1.08535
rradius 115.654
rwrist -55.2097
rhand -8.8006 -48.806
rfingers 7.12502
rthumb 17.1384 -78.0701
lclavicle 4.56459e-014 2.38542e-014
lhumerus 30.3985 27.5987 -11.0172
lradius 43.7991
lwrist 65.6161
lhand -28.9458 -20.4951
lfingers 7.12502
lthumb -2.29936 9.47224
rfemur -13.1257 -1.15522 -3.68544
rtibia 17.2053
rfoot -38.0437 -17.8129
rtoes 52.84
lfemur -25.9591 3.54073 -29.3278
ltibia 22.4554
lfoot -13.8736 11.3383
ltoes 13.6824
215
root 4.16726 17.4701 3.19804 18.1525 -17.1381 -0.948031
lowerback -6.06273 3.82026 3.43548
upperback -10.9069 4.99521 -0.743823
thorax -7.7341 2.16515 -2.71191
lowerneck -10.2891 6.92354 4.74421
upperneck 36.0024 8.09553 2.94662
head 14.0872 4.55156 1.56219
rclavicle -7.4917e-014 -3.79679e-014
rhumerus 12.1641 -19.8747 0.800566
rradius 115.504
rwrist -55.0231
rhand -8.85456 -48.7199
rfingers 7.12502
rthumb 17.0864 -77.9885
lclavicle -7.4917e-014 -3.79679e-014
lhumerus 30.6908 27.7044 -10.5451
lradius 43.8484
lwrist 65.5243
lhand -29.0711 -20.816
lfingers 7.12502
lthumb -2.42041 9.15004
rfemur -13.2647 -1.05119 -3.75932
rtibia 17.262
rfoot -38.0205 -17.9
rtoes 52.706
lfemur -26.0235 3.54807 -29.3476
ltibia 22.5711
lfoot -13.9379 11.4733
ltoes 14.2324
216
root 4.17248 17.4667 3.19284 17.9897 -17.3379 -0.91215
lowerback -5.89707 3.82529 3.33074
upperback -10.8113 5.00814 -0.752146
thorax -7.72827 2.1806 -2.67054
lowerneck -10.4369 6.81172 4.58414
upperneck 36.2049 7.96675 2.92713
head 14.2022 4.46818 1.57691
rclavicle 3.56818e-014 -1.37161e-014
rhumerus 12.3594 -19.9169 0.498655
rradius 115.427
rwrist -55.0021
rhand -8.81485 -48.6491
rfingers 7.12502
rthumb 17.1247 -77.9145
lclavicle 3.56818e-014 -1.37161e-014
lhumerus 30.8451 28.0067 -10.1321
lradius 43.9737
lwrist 65.482
lhand -29.8593 -21.5813
lfingers 7.12502
lthumb -3.18153 8.37467
rfemur -13.3214 -0.977785 -3.84718
rtibia 17.3557
rfoot -37.8989 -18.0339
rtoes 52.6149
lfemur -25.9459 3.53595 -29.3815
ltibia 22.6526
lfoot -14.0141 11.6236
ltoes 14.6446
217
root 4.18385 17.4623 3.18929 17.8692 -17.2907 -0.919409
lowerback -5.92438 3.80018 3.43818
upperback -10.6476 4.97014 -0.747384
thorax -7.52564 2.16134 -2.71465
lowerneck -10.5314 6.66053 4.30533
upperneck 36.3101 7.79114 2.96279
head 14.2501 4.357 1.6189
rclavicle -1.78409e-014 -2.98177e-014
rhumerus 12.5896 -20.0231 0.216597
rradius 115.315
rwrist -55.011
rhand -8.88693 -48.5268
rfingers 7.12502
rthumb 17.0553 -77.7981
lclavicle -1.78409e-014 -2.98177e-014
lhumerus 31.0157 28.334 -9.65822
lradius 44.1039
lwrist 65.6737
lhand -30.3524 -21.7473
lfingers 7.12502
lthumb -3.65774 8.20103
rfemur -13.2973 -1.29034 -3.82758
rtibia 17.4825
rfoot -37.6849 -18.2451
rtoes 52.5578
lfemur -25.8551 3.44145 -29.3767
ltibia 22.7351
lfoot -14.0848 11.7236
ltoes 14.4572
218
root 4.19696 17.4578 3.1815 17.7889 -17.1279 -0.894967
lowerback -5.85777 3.75829 3.56741
upperback -10.6198 4.91548 -0.756262
thorax -7.52644 2.1242 -2.7989
lowerneck -10.5328 6.54109 4.09205
upperneck 36.5603 7.66217 2.98121
head 14.3508 4.27304 1.6527
rclavicle -6.17226e-014 -1.55052e-014
rhumerus 12.7401 -19.8993 0.0292077
rradius 115.166
rwrist -54.9488
rhand -9.1776 -48.3688
rfingers 7.12502
rthumb 16.7755 -77.6641
lclavicle -6.17226e-014 -1.55052e-014
lhumerus 31.3311 28.5363 -9.0646
lradius 44.1733
lwrist 65.9469
lhand -30.3265 -21.6362
lfingers 7.12502
lthumb -3.63279 8.31255
rfemur -13.2545 -1.78738 -3.80247
rtibia 17.5866
rfoot -38.0049 -17.6155
rtoes 52.9424
lfemur -25.856 3.29326 -29.3964
ltibia 22.8865
lfoot -14.1606 11.743
ltoes 14.2448
219
root 4.20802 17.4531 3.17783 17.778 -17.1197 -0.926583
lowerback -5.81992 3.75169 3.65067
upperback -10.6445 4.90826 -0.751619
thorax -7.57046 2.11272 -2.84384
lowerneck -10.4524 6.43572 3.89839
upperneck 36.712 7.54841 3.00807
head 14.389 4.2004 1.68082
rclavicle 4.62174e-014 1.63003e-014
rhumerus 12.7756 -19.7529 -0.0575646
rradius 115.185
rwrist -55.1128
rhand -9.75334 -48.3785
rfingers 7.12502
rthumb 16.2212 -77.7199
lclavicle 4.62174e-014 1.63003e-014
lhumerus 31.413 28.5407 -8.80114
lradius 44.3624
lwrist 66.286
lhand -29.8041 -21.0446
lfingers 7.12502
lthumb -3.12831 8.91215
rfemur -13.2855 -2.15692 -3.77793
rtibia 17.6849
rfoot -38.4006 -16.3885
rtoes 53.547
lfemur -25.9546 3.22223 -29.3777
ltibia 23.1066
lfoot -14.301 11.722
ltoes 14.6985
220
root 4.21663 17.4445 3.18274 17.7914 -17.2339 -0.972052
lowerback -6.07355 3.78052 3.69141
upperback -10.5335 4.9309 -0.76317
thorax -7.29713 2.12974 -2.85423
lowerneck -10.3685 6.33399 3.75731
upperneck 36.7027 7.42437 3.02861
head 14.3552 4.12987 1.68881
rclavicle 2.55935e-015 -1.98785e-016
rhumerus 12.9342 -19.8821 -0.381
rradius 115.15
rwrist -55.2152
rhand -10.034 -48.6582
rfingers 7.12502
rthumb 15.9509 -78.0214
lclavicle 2.55935e-015 -1.98785e-016
lhumerus 31.4968 28.7478 -8.56639
lradius 44.5726
lwrist 66.5075
lhand -30.0419 -21.2185
lfingers 7.12502
lthumb -3.35794 8.73481
rfemur -13.2845 -2.40904 -3.81735
rtibia 17.8044
rfoot -38.7908 -14.2608
rtoes 54.4074
lfemur -26.069 3.25685 -29.3866
ltibia 23.3675
lfoot -14.486 11.7554
ltoes 15.1738
221
root 4.22209 17.4401 3.18428 17.7837 -17.3179 -1.15466
lowerback -6.25709 3.78354 3.81184
upperback -10.3868 4.92354 -0.713248
thorax -7.02701 2.12898 -2.84788
lowerneck -10.593 6.24196 3.6319
upperneck 36.971 7.30254 3.04259
head 14.5233 4.05675 1.71883
rclavicle 1.8487e-014 3.97569e-015
rhumerus 13.3264 -20.1124 -0.984581
rradius 114.96
rwrist -55.0696
rhand -9.4076 -48.9807
rfingers 7.12502
rthumb 16.554 -78.2946
lclavicle 1.8487e-014 3.97569e-015
lhumerus 31.7553 29.2106 -8.07534
lradius 44.6507
lwrist 66.3869
lhand -31.9251 -23.5547
lfingers 7.12502
lthumb -5.17639 6.36206
rfemur -13.5644 -2.6189 -3.58921
rtibia 18.0519
rfoot -38.1239 -15.6534
rtoes 54.1459
lfemur -26.118 3.34248 -29.2285
ltibia 23.5541
lfoot -14.6019 11.8335
ltoes 15.2576
222
root 4.22431 17.4391 3.17669 17.7825 -17.4756 -1.39283
lowerback -6.18605 3.78918 3.90177
upperback -10.3273 4.93644 -0.619196
thorax -7.00263 2.13413 -2.80114
lowerneck -10.8999 6.10838 3.48695
upperneck 37.3377 7.14145 3.00208
head 14.7609 3.95486 1.73189
rclavicle -1.52567e-014 5.56597e-015
rhumerus 13.6737 -20.2072 -1.45962
rradius 114.871
rwrist -55.0012
rhand -8.82584 -48.9403
rfingers 7.12502
rthumb 17.1141 -78.2065
lclavicle -1.52567e-014 5.56597e-015
lhumerus 31.7993 29.3436 -7.86201
lradius 44.807
lwrist 66.3441
lhand -33.5936 -25.9034
lfingers 7.12502
lthumb -6.78728 3.96779
rfemur -13.8557 -2.42851 -3.35122
rtibia 18.3848
rfoot -38.4086 -15.0785
rtoes 54.397
lfemur -26.1834 3.51577 -29.0007
ltibia 23.6652
lfoot -14.6668 11.8577
ltoes 15.4479
223
root 4.2277 17.4407 3.16631 17.7114 -17.8182 -1.25153
lowerback -5.98772 3.82119 3.56413
upperback -10.3378 4.99251 -0.635988
thorax -7.14561 2.18173 -2.64726
lowerneck -11.1159 5.96292 3.35664
upperneck 37.6864 6.95771 2.97724
head 14.9725 3.84849 1.73994
rclavicle 2.91965e-014 1.25234e-014
rhumerus 13.8507 -20.1753 -1.68014
rradius 114.849
rwrist -55.0337
rhand -8.78094 -48.7622
rfingers 7.12502
rthumb 17.1573 -78.0247
lclavicle 2.91965e-014 1.25234e-014
lhumerus 31.7734 29.2808 -7.69791
lradius 45.1002
lwrist 66.3318
lhand -33.9865 -26.1715
lfingers 7.12502
lthumb -7.1665 3.68715
rfemur -14.385 -2.48638 -3.49939
rtibia 18.7352
rfoot -37.6045 -17.328
rtoes 53.7452
lfemur -26.2418 3.6603 -29.1967
ltibia 23.6974
lfoot -14.704 11.9576
ltoes 15.6587
224
root 4.23417 17.4397 3.15526 17.6489 -17.9986 -1.05582
lowerback -5.72054 3.79916 3.24825
upperback -10.4281 4.97792 -0.669651
thorax -7.41879 2.18765 -2.53296
lowerneck -11.4142 5.83799 3.22294
upperneck 38.2219 6.77477 3.03532
head 15.2947 3.75119 1.79504
rclavicle -4.5795e-014 -1.31198e-014
rhumerus 13.9687 -20.0074 -1.85312
rradius 114.855
rwrist -55.135
rhand -8.89512 -48.6857
rfingers 7.12502
rthumb 17.0474 -77.9577
lclavicle -4.5795e-014 -1.31198e-014
lhumerus 31.778 29.246 -7.45184
lradius 45.4322
lwrist 66.5953
lhand -33.5936 -25.8777
lfingers 7.12502
lthumb -6.78726 3.99347
rfemur -14.6916 -2.59912 -3.74351
rtibia 19.116
rfoot -37.5962 -16.9278
rtoes 53.8087
lfemur -26.258 3.62504 -29.427
ltibia 23.6594
lfoot -14.6734 12.1004
ltoes 15.5453
